<svg data-v-5148968a="" width="11px" height="11px" viewBox="0 0 11 11" version="1.1" xmlns="http://www.w3.org/2000/svg" xmlns:xlink="http://www.w3.org/1999/xlink"><title data-v-5148968a="">-mockplus-</title><defs data-v-5148968a=""><path data-v-5148968a="" d="M4.30596452,7.65983981 L2.38801148,8.45029728 C2.0599599,8.58549914 1.68179288,8.43538595 1.54335179,8.11501009 C1.50252186,8.02052281 1.48594356,7.91772549 1.4950583,7.81555605 L1.67460948,5.8029228 C1.68980622,5.6325788 1.63340907,5.46352448 1.51838026,5.33461501 L0.158671674,3.81082883 C-0.0752590161,3.54866945 -0.047283437,3.15094613 0.221156879,2.92248893 C0.300957677,2.85457414 0.396653332,2.80689256 0.499794228,2.78365431 L2.5243183,2.32751716 C2.69424154,2.28923246 2.84103671,2.18535626 2.93121315,2.03958745 L4.00480781,0.304138372 C4.18893237,0.00650389057 4.58525594,-0.0890065128 4.89002129,0.0908099157 C4.97946074,0.143580618 5.05442577,0.216791622 5.10846077,0.304138372 L6.18205543,2.03958745 C6.27223188,2.18535626 6.41902704,2.28923246 6.58895028,2.32751716 L8.61347435,2.78365431 C8.96042796,2.86182499 9.17680133,3.19987539 9.09675779,3.53871101 C9.07296279,3.63943862 9.02413883,3.7328952 8.95459691,3.81082883 L7.59488833,5.33461501 C7.47985951,5.46352448 7.42346236,5.6325788 7.4386591,5.8029228 L7.61821028,7.81555605 C7.64911544,8.1619796 7.38660895,8.46727875 7.03188561,8.4974608 C6.92726835,8.50636228 6.82200816,8.49017187 6.7252571,8.45029728 L4.80730406,7.65983981 C4.64703437,7.59378691 4.46623421,7.59378691 4.30596452,7.65983981 Z" id="path-1"></path></defs><g data-v-5148968a="" id="设计" stroke="none" stroke-width="1" fill="none" fill-rule="evenodd"><g data-v-5148968a="" id="星级表现分级与切图" transform="translate(-105.000000, -10.000000)"><g data-v-5148968a="" id="-mockplus-" transform="translate(105.000000, 10.000000)"><g data-v-5148968a="" id="星级-五星备份-7" transform="translate(0.000000, 1.000000)"><g data-v-5148968a="" id="编组" transform="translate(0.950000, 0.269811)"><mask data-v-5148968a="" id="mask-2" fill="white"><use data-v-5148968a="" xlink:href="#path-1"></use></mask><use data-v-5148968a="" id="蒙版" fill="#FF7429" xlink:href="#path-1"></use></g></g></g></g></g></svg>